<?xml version="1.0" encoding="UTF-8"?>
<svg width="681px" height="124px" viewBox="0 0 681 124" version="1.1" xmlns="http://www.w3.org/2000/svg" xmlns:xlink="http://www.w3.org/1999/xlink">
    <title>Stock Analyzer</title>
    <g id="Website" stroke="none" stroke-width="1" fill="none" fill-rule="evenodd">
        <g id="Stock-Analyzer" transform="translate(0.760000, 0.960000)" fill="#FFFFFF" fill-rule="nonzero">
            <path d="M57.12,33.96 C56.72,33.16 56.56,32.28 56.64,31.32 C56.72,30.6 56.96,30 57.36,29.52 C57.68,29.28 57.84,29.2 57.84,29.28 C58.4,29.84 59.08,30.12 59.88,30.12 C60.92,30.12 61.9,29.64 62.82,28.68 C63.74,27.72 64.28,26.6 64.44,25.32 C64.84,22.84 63.96,20.36 61.8,17.88 C59.64,15.4 57.04,13.64 54,12.6 C51.84,11.8 49.64,11.4 47.4,11.4 C42.2,11.4 38.64,13.24 36.72,16.92 C35.92,18.44 35.52,20.04 35.52,21.72 C35.52,27.4 39.88,34.96 48.6,44.4 L53.28,49.44 C61.68,58.48 65.88,65.96 65.88,71.88 C65.88,74.68 65.12,77.56 63.6,80.52 C61.2,85.24 57,89.14 51,92.22 C45,95.3 38.4,96.84 31.2,96.84 C27.92,96.84 24.64,96.48 21.36,95.76 C15.04,94.32 9.9,91.64 5.94,87.72 C1.98,83.8 2.27373675e-13,79.56 2.27373675e-13,75 C2.27373675e-13,70.6 1.62,66.76 4.86,63.48 C8.1,60.2 11.92,58.68 16.32,58.92 C19.76,59.08 21.96,60.56 22.92,63.36 C23.24,64.16 23.28,64.68 23.04,64.92 C23.04,64.92 23.04,64.92 23.04,64.92 C22.64,64.84 22.24,64.8 21.84,64.8 C20.24,64.8 18.68,65.46 17.16,66.78 C15.64,68.1 14.76,69.72 14.52,71.64 C14.12,74.36 14.94,76.96 16.98,79.44 C19.02,81.92 21.8,83.84 25.32,85.2 C28.28,86.4 31.48,87 34.92,87 C42.04,87 46.8,85 49.2,81 C50,79.56 50.4,78 50.4,76.32 C50.4,71.6 47.28,65.96 41.04,59.4 L35.52,53.64 C26.8,44.44 22.44,35.04 22.44,25.44 C22.44,21.36 23.36,17.72 25.2,14.52 C30.32,5.24 38.64,0.6 50.16,0.6 C52.56,0.6 55.04,0.84 57.6,1.32 C64,2.52 69.08,5.08 72.84,9 C76.28,12.68 78,16.8 78,21.36 C78,23.12 77.68,24.88 77.04,26.64 C76,29.44 74.14,31.92 71.46,34.08 C68.78,36.24 66.12,37.32 63.48,37.32 C60.44,37.32 58.32,36.2 57.12,33.96 Z" id="Path"></path>
            <path d="M110.16,71.76 C104,85.84 94.8,92.88 82.56,92.88 C79.2,92.88 76.52,91.98 74.52,90.18 C72.52,88.38 71.52,85.96 71.52,82.92 C71.52,80.52 72.16,78 73.44,75.36 L83.64,53.76 L81.36,53.76 C80.48,53.76 80.04,53 80.04,51.48 C80.04,49.72 80.64,48.2 81.84,46.92 C83.04,45.64 84.52,45 86.28,45 L87.84,45 L95.04,29.76 C96,27.76 97.8,26.2 100.44,25.08 C102.6,24.2 104.64,23.88 106.56,24.12 C107.76,24.36 108.36,24.92 108.36,25.8 C108.36,26.2 108.24,26.64 108,27.12 L99.84,45 L105.84,45 C106.72,45 107,45.76 106.68,47.28 C106.36,48.72 105.58,50.16 104.34,51.6 C103.1,53.04 101.76,53.76 100.32,53.76 L95.76,53.76 L86.64,73.68 C85.6,75.92 85.08,77.76 85.08,79.2 C85.08,81.76 86.48,83.04 89.28,83.04 C91.2,83.04 93.12,82.32 95.04,80.88 C98.8,78 102.24,73.16 105.36,66.36 C105.84,65.4 106.8,65.36 108.24,66.24 C109.76,67.12 110.52,68.44 110.52,70.2 C110.52,70.76 110.4,71.28 110.16,71.76 Z" id="Path"></path>
            <path d="M142.08,68.76 C140.56,71.88 138.64,74.92 136.32,77.88 C138.4,79.24 140.4,79.8 142.32,79.56 C145.76,79.08 149.4,74.84 153.24,66.84 C153.8,65.72 154.6,65.4 155.64,65.88 C156.6,66.28 157.4,66.98 158.04,67.98 C158.68,68.98 158.88,69.92 158.64,70.8 C158.4,72.08 157.48,74.08 155.88,76.8 C154.12,80 152.4,82.36 150.72,83.88 C148.16,86.2 144.88,87.36 140.88,87.36 C136.88,87.36 133.44,86.28 130.56,84.12 C123.68,90.6 117.08,93.84 110.76,93.84 C107.4,93.84 104.8,92.78 102.96,90.66 C101.12,88.54 100.2,85.64 100.2,81.96 C100.2,77.96 101.32,73.56 103.56,68.76 C106.92,61.88 111.64,55.98 117.72,51.06 C123.8,46.14 129.52,43.68 134.88,43.68 C138.24,43.68 140.84,44.74 142.68,46.86 C144.52,48.98 145.44,51.88 145.44,55.56 C145.44,59.56 144.32,63.96 142.08,68.76 Z M126.84,55.08 C122.28,57.8 118.52,62.28 115.56,68.52 C113.88,72.04 113.04,75.16 113.04,77.88 C113.04,81.48 114.4,83.28 117.12,83.28 C119.68,83.28 122.6,81.72 125.88,78.6 C123.88,75 123.04,71.24 123.36,67.32 C123.92,62.36 125.08,58.28 126.84,55.08 Z M135.48,59.16 C135.48,57.08 135,55.56 134.04,54.6 C131.56,58.52 130.4,62.72 130.56,67.2 C130.64,68.64 130.92,70.04 131.4,71.4 C134.12,66.84 135.48,62.76 135.48,59.16 Z" id="Shape"></path>
            <path d="M190.44,50.88 C190.36,53.28 189.52,55.68 187.92,58.08 C186.08,60.88 184.04,62.28 181.8,62.28 C179.56,62.28 178.4,61.2 178.32,59.04 C178.32,57.04 179.2,55.22 180.96,53.58 C182.72,51.94 184.56,51.28 186.48,51.6 C186.4,50.16 185.24,49.44 183,49.44 C180.6,49.44 177.76,51.2 174.48,54.72 C171.44,57.92 168.74,61.84 166.38,66.48 C164.02,71.12 162.84,75.12 162.84,78.48 C162.84,83.28 165.32,85.68 170.28,85.68 C175.24,85.68 179.92,83.36 184.32,78.72 C186.72,76.24 188.8,73.24 190.56,69.72 C190.88,69 191.4,68.64 192.12,68.64 C192.84,68.64 193.6,69 194.4,69.72 C195.84,70.92 196.24,72.48 195.6,74.4 C194.64,77.12 192.72,80.24 189.84,83.76 C184.24,90.32 176.48,93.6 166.56,93.6 C164.08,93.6 161.68,93.36 159.36,92.88 C152.64,91.44 149.28,87.08 149.28,79.8 C149.28,75.24 150.64,70.52 153.36,65.64 C156.8,59.64 161.22,54.52 166.62,50.28 C172.02,46.04 177.24,43.92 182.28,43.92 C184.44,43.92 186.34,44.52 187.98,45.72 C189.62,46.92 190.44,48.64 190.44,50.88 Z" id="Path"></path>
            <path d="M243.84,71.52 C240.96,78.48 237.08,83.88 232.2,87.72 C227.8,91.08 223.2,92.76 218.4,92.76 C212.32,92.76 208.96,90.04 208.32,84.6 C208.08,82.6 208.54,79.9 209.7,76.5 C210.86,73.1 211.44,71.04 211.44,70.32 C211.44,68.88 210.16,68.24 207.6,68.4 C205.04,68.56 203.64,67.96 203.4,66.6 L191.64,90.84 C191.24,91.56 190.76,91.92 190.2,91.92 L181.2,91.92 C180.4,91.92 180.2,91.52 180.6,90.72 L216.72,13.8 C217.52,12.12 219,10.66 221.16,9.42 C223.32,8.18 225.32,7.52 227.16,7.44 C229.08,7.36 230.04,8.08 230.04,9.6 C230.04,10.16 229.88,10.84 229.56,11.64 C225,21.56 217.28,37.76 206.4,60.24 C206.96,60.8 207.56,61.04 208.2,60.96 C209.24,60.8 210.92,59.32 213.24,56.52 C216.36,52.76 218.76,50.2 220.44,48.84 C223.72,46.12 227.08,44.76 230.52,44.76 C235.8,44.76 238.64,47.24 239.04,52.2 C239.2,54.84 238.44,57.28 236.76,59.52 C235.08,61.76 233,62.88 230.52,62.88 C229.24,62.88 228.28,62.42 227.64,61.5 C227,60.58 226.72,59.56 226.8,58.44 C227.12,55.88 228.6,54.12 231.24,53.16 C232.44,52.68 233.04,51.96 233.04,51 C233.04,50.36 232.52,50.08 231.48,50.16 C229.72,50.32 226.76,52.8 222.6,57.6 C220.44,60.24 218.28,62.88 216.12,65.52 C220.28,66.32 222.16,68.6 221.76,72.36 C221.76,73.16 221.56,74.4 221.16,76.08 C220.76,77.76 220.56,78.96 220.56,79.68 C220.56,81.68 221.6,82.68 223.68,82.68 C226.16,82.68 228.88,81 231.84,77.64 C234.56,74.52 236.84,70.8 238.68,66.48 C239,65.84 239.56,65.6 240.36,65.76 C241.24,65.92 242.08,66.44 242.88,67.32 C243.68,68.2 244.08,69.16 244.08,70.2 C244.08,70.68 244,71.12 243.84,71.52 Z" id="Path"></path>
            <path d="M323.04,48 C329.36,50.8 334.92,55.24 339.72,61.32 C340.36,58.52 341.04,55.64 341.76,52.68 C343.84,44.44 346.56,36.52 349.92,28.92 C351.36,25.72 355.08,18.32 361.08,6.72 C361.32,6.24 361.36,5.96 361.2,5.88 C361.04,5.8 360.72,5.84 360.24,6 C351.68,8.64 344.64,13.28 339.12,19.92 C335.76,24.08 331.36,31.52 325.92,42.24 L323.04,48 Z M334.56,90.6 C334.96,89.24 335.16,87.32 335.16,84.84 C335.16,75.72 331.96,67.88 325.56,61.32 C323.72,59.4 321.44,57.76 318.72,56.4 L311.88,69.84 C307.64,78.32 302.68,84.64 297,88.8 C292.2,92.24 287.4,93.96 282.6,93.96 C280.12,93.96 277.88,93.48 275.88,92.52 C272.44,90.84 270.72,88.04 270.72,84.12 C270.72,82.44 271.08,80.56 271.8,78.48 C272.12,77.44 272.72,76.84 273.6,76.68 C274,76.68 274.3,76.78 274.5,76.98 C274.7,77.18 274.8,77.52 274.8,78 C274.72,79.12 275.08,80.24 275.88,81.36 C276.68,82.48 277.76,83.16 279.12,83.4 C285.92,84.44 292.32,79.04 298.32,67.2 L305.52,52.8 C302.56,52.56 300.76,52.7 300.12,53.22 C299.48,53.74 299.12,54.28 299.04,54.84 C299.36,55.88 299.28,57.64 298.8,60.12 C297.52,62.52 295.6,63.72 293.04,63.72 C292,63.72 291.08,63.44 290.28,62.88 C288.52,61.92 287.64,60.28 287.64,57.96 C287.64,55.16 288.8,52.64 291.12,50.4 C295.36,46.24 301.28,44.32 308.88,44.64 L309.6,44.64 L312.24,39.48 C319.76,24.52 328.28,14.44 337.8,9.24 C346.84,4.28 356.24,1.68 366,1.44 C367.84,1.44 368.84,1.64 369,2.04 C369.24,2.36 369.08,3.08 368.52,4.2 C362.12,15.8 357.4,30.2 354.36,47.4 C351.64,62.84 350.28,77.16 350.28,90.36 C350.36,91.48 350,92.04 349.2,92.04 L335.52,92.04 C334.64,92.04 334.32,91.56 334.56,90.6 Z" id="Shape"></path>
            <path d="M384.84,46.32 L382.56,51.48 C386.72,46.68 391.28,44.4 396.24,44.64 C401.44,44.8 404.04,47.72 404.04,53.4 C404.04,54.04 404,54.68 403.92,55.32 C403.68,57.32 402.12,61.44 399.24,67.68 C396.6,73.6 395.28,77.52 395.28,79.44 C395.28,81.52 396.44,82.56 398.76,82.56 C403.4,82.56 408.36,77.08 413.64,66.12 C414.04,65.32 415,65.4 416.52,66.36 C418.04,67.32 418.8,68.6 418.8,70.2 C418.8,70.76 418.68,71.36 418.44,72 C415.24,79.2 411.12,84.6 406.08,88.2 C401.92,91.24 397.64,92.76 393.24,92.76 C390.04,92.76 387.4,91.9 385.32,90.18 C383.24,88.46 382.2,86 382.2,82.8 C382.2,80.48 382.84,78 384.12,75.36 L389.28,64.68 C390.88,61.48 391.68,58.72 391.68,56.4 C391.68,54.32 390.92,53.28 389.4,53.28 C387.48,53.28 385.04,55.2 382.08,59.04 C379.92,61.84 377.88,65.32 375.96,69.48 L366,90.96 C365.68,91.68 365.16,92.04 364.44,92.04 L354.96,92.04 C354.24,92.04 354.04,91.68 354.36,90.96 L375.12,45.96 C375.44,45.24 376.04,44.88 376.92,44.88 L383.76,44.88 C384.88,44.88 385.24,45.36 384.84,46.32 Z" id="Path"></path>
            <path d="M464.4,71.76 C462.08,77.2 459.12,81.72 455.52,85.32 C450.64,90.12 445.2,92.64 439.2,92.88 C435.68,93.04 433.04,91.92 431.28,89.52 C430.08,87.84 429.44,85.88 429.36,83.64 C427.84,85.8 425.6,87.76 422.64,89.52 C419.28,91.6 416.24,92.64 413.52,92.64 C411.84,92.64 410.4,92.24 409.2,91.44 C407.2,90.08 406.2,87.6 406.2,84 C406.2,78.64 407.82,72.9 411.06,66.78 C414.3,60.66 418.44,55.44 423.48,51.12 C429,46.4 434.2,44.08 439.08,44.16 C442.28,44.16 444.12,45.04 444.6,46.8 L445.2,45.6 C445.44,45.12 445.84,44.88 446.4,44.88 L454.92,44.88 C455.48,44.88 455.6,45.24 455.28,45.96 L442.8,73.68 C441.84,75.92 441.36,77.8 441.36,79.32 C441.36,81.48 442.52,82.56 444.84,82.56 C449.4,82.56 454.28,77.16 459.48,66.36 C460.04,65.4 461.04,65.36 462.48,66.24 C464,67.12 464.76,68.44 464.76,70.2 C464.76,70.76 464.64,71.28 464.4,71.76 Z M440.76,54.36 C441.08,53.56 441.24,52.84 441.24,52.2 C441.24,50.68 440.48,49.92 438.96,49.92 C436.56,49.92 433.88,51.08 430.92,53.4 C427.56,56.2 424.7,59.98 422.34,64.74 C419.98,69.5 418.8,73.32 418.8,76.2 C418.8,79.4 420.2,81 423,81 C426.6,81 429.32,79.08 431.16,75.24 L440.76,54.36 Z" id="Shape"></path>
            <path d="M476.76,55.56 C482.68,51.16 488.28,45 493.56,37.08 C496.6,32.52 499.08,27.84 501,23.04 C502.84,18.64 503.76,15.2 503.76,12.72 C503.76,11.2 503.36,10.36 502.56,10.2 C501.12,9.88 498.36,12.56 494.28,18.24 C489.88,24.4 485.36,32.12 480.72,41.4 C472.08,58.92 467.76,71.6 467.76,79.44 C467.76,83.52 469.36,85.56 472.56,85.56 C475.52,85.56 479,83.32 483,78.84 C485.32,76.28 487.36,73.24 489.12,69.72 C489.44,69 489.96,68.64 490.68,68.64 C491.4,68.64 492.16,69 492.96,69.72 C494.32,70.84 494.64,72.32 493.92,74.16 C492.56,78 490.76,81.2 488.52,83.76 C482.52,90.48 475.76,93.84 468.24,93.84 C466,93.84 463.92,93.44 462,92.64 C458.08,91.04 456.12,86.88 456.12,80.16 C456.12,70.4 460.24,57.76 468.48,42.24 C474.96,30 482.08,19.76 489.84,11.52 C497.04,3.84 502.72,-5.68434189e-14 506.88,-5.68434189e-14 C509.76,-5.68434189e-14 511.2,2 511.2,6 C511.2,9.92 509.84,15.2 507.12,21.84 C504.64,27.92 501.72,33.56 498.36,38.76 C492.2,48.12 485.68,55.48 478.8,60.84 C478.08,61.4 477.44,61.68 476.88,61.68 C476.24,61.68 475.8,61.24 475.56,60.36 C475,58.12 475.4,56.52 476.76,55.56 Z" id="Path"></path>
            <path d="M502.8,41.88 C506.16,42.28 507.84,44.28 507.84,47.88 C507.84,48.76 507.72,49.68 507.48,50.64 C507,53.36 505.1,58.22 501.78,65.22 C498.46,72.22 496.72,76.2 496.56,77.16 C496.08,80.04 497.2,81.52 499.92,81.6 C501.92,81.68 504.04,80.32 506.28,77.52 L520.68,45.6 C520.84,45.12 521.24,44.88 521.88,44.88 L530.4,44.88 C530.96,44.88 531.08,45.24 530.76,45.96 L513,86.76 C515.48,85.72 517.96,84.64 520.44,83.52 C524.12,81.68 527.08,79.24 529.32,76.2 C531.16,73.64 533.04,70.36 534.96,66.36 C535.44,65.32 536.44,65.28 537.96,66.24 C539.48,67.2 540.24,68.56 540.24,70.32 C540.24,71.36 539.32,73.56 537.48,76.92 C536.6,78.36 535.68,79.72 534.72,81 C529.84,87.8 521.2,92.72 508.8,95.76 L501.48,111.12 C497.8,118.96 491.52,122.88 482.64,122.88 C475.44,122.88 471.84,119.96 471.84,114.12 C471.84,112.12 472.44,109.96 473.64,107.64 C475.48,104.12 479.76,100.68 486.48,97.32 C490.96,95.4 495.4,93.48 499.8,91.56 C500.04,91.16 500.8,89.52 502.08,86.64 C498.72,89.52 495.2,90.96 491.52,90.96 C489.2,90.96 487.3,90.08 485.82,88.32 C484.34,86.56 483.76,84.12 484.08,81 C484.24,79.4 486.04,75.48 489.48,69.24 C493.48,61.96 495.84,57.32 496.56,55.32 C497.52,52.76 497.6,51.12 496.8,50.4 C495.2,49.04 495.04,47.32 496.32,45.24 C497.84,42.76 500,41.64 502.8,41.88 Z M496.08,100.08 C486.08,103.12 480.48,106.28 479.28,109.56 C479.04,110.2 478.92,110.84 478.92,111.48 C478.92,113.56 480.28,114.6 483,114.6 C487,114.6 490.08,112.4 492.24,108 L496.08,100.08 Z" id="Shape"></path>
            <path d="M594,78.12 C588.88,86.6 579.6,92.48 566.16,95.76 L558.84,111.12 C557,115.12 554.12,118.16 550.2,120.24 C547,121.92 543.56,122.76 539.88,122.76 C536.92,122.76 534.48,122.12 532.56,120.84 C530.32,119.24 529.2,117 529.2,114.12 C529.2,112.12 529.8,109.96 531,107.64 C533.72,102.44 542.64,97 557.76,91.32 C559.36,88.44 560.16,86.2 560.16,84.6 C560.16,83.72 559.96,82.84 559.56,81.96 C556.04,84.68 552.72,86.04 549.6,86.04 C548.64,86.04 547.6,85.92 546.48,85.68 C545.36,85.44 544.4,84.8 543.6,83.76 C542.8,82.72 542.52,81.56 542.76,80.28 C543.88,75.48 547.32,72.64 553.08,71.76 C555.72,71.36 558.28,71.6 560.76,72.48 C562.04,70.48 564.2,67.16 567.24,62.52 C565.4,63.16 563.6,63.48 561.84,63.48 C559.12,63.48 557.08,62.76 555.72,61.32 C555,60.6 554.64,59.16 554.64,57 C554.64,56.52 554.68,55.8 554.76,54.84 C554.76,53.88 554.76,53.24 554.76,52.92 C554.76,52.04 554.64,51.56 554.4,51.48 C553.04,51.08 549.56,55.6 543.96,65.04 C540.84,70.48 537.72,75.92 534.6,81.36 C534.36,81.76 534.08,81.96 533.76,81.96 C532.88,81.96 531.96,81.16 531,79.56 C530.04,77.96 529.76,76.76 530.16,75.96 C542.08,51.4 552.8,39.44 562.32,40.08 C566,40.32 567.64,42.48 567.24,46.56 C567.16,47.52 566.4,49.44 564.96,52.32 C563.68,54.8 563.16,56.28 563.4,56.76 C563.8,57.56 564.48,57.96 565.44,57.96 C566.64,57.96 568,57.38 569.52,56.22 C571.04,55.06 572.12,53.84 572.76,52.56 C576.76,44.4 581,40.16 585.48,39.84 C588.28,39.6 589.68,40.68 589.68,43.08 C589.68,46.12 586.48,51.68 580.08,59.76 C575.12,66 570.56,71.12 566.4,75.12 C569.04,76.4 570.36,79.2 570.36,83.52 C570.36,84.72 570.2,85.92 569.88,87.12 C577.72,84.48 583.32,80.84 586.68,76.2 C588.52,73.64 590.4,70.36 592.32,66.36 C592.8,65.32 593.8,65.28 595.32,66.24 C596.84,67.2 597.6,68.56 597.6,70.32 C597.6,71.68 596.4,74.28 594,78.12 Z M553.44,100.08 C543.44,103.12 537.84,106.28 536.64,109.56 C536.4,110.2 536.28,110.84 536.28,111.48 C536.28,113.56 537.64,114.6 540.36,114.6 C544.36,114.6 547.44,112.4 549.6,108 L553.44,100.08 Z" id="Shape"></path>
            <path d="M603,71.28 C613.16,66.64 619.72,60.92 622.68,54.12 C623.16,53 623.4,52.08 623.4,51.36 C623.4,50.24 622.88,49.6 621.84,49.44 C620.08,49.2 617.48,50.82 614.04,54.3 C610.6,57.78 607.68,61.84 605.28,66.48 C604.4,68.16 603.64,69.76 603,71.28 Z M634.44,74.4 C633.48,77.12 631.56,80.24 628.68,83.76 C623.08,90.32 615.32,93.6 605.4,93.6 C602.92,93.6 600.52,93.36 598.2,92.88 C591.56,91.44 588.24,87.12 588.24,79.92 C588.24,75.28 589.56,70.52 592.2,65.64 C595.56,59.56 599.96,54.44 605.4,50.28 C610.84,46.12 616.08,44 621.12,43.92 C623.6,43.92 625.52,44.4 626.88,45.36 C628.4,46.56 629.08,48.36 628.92,50.76 C628.44,56.36 625.08,61.84 618.84,67.2 C613.48,71.84 607.76,75.16 601.68,77.16 C601.28,81.64 602.6,84.32 605.64,85.2 C606.76,85.52 607.92,85.68 609.12,85.68 C614.08,85.68 618.76,83.36 623.16,78.72 C625.56,76.24 627.64,73.24 629.4,69.72 C629.72,69 630.24,68.64 630.96,68.64 C631.68,68.64 632.44,69 633.24,69.72 C634.68,70.92 635.08,72.48 634.44,74.4 Z" id="Shape"></path>
            <path d="M645.48,39.96 C647.32,39.96 648.76,40.58 649.8,41.82 C650.84,43.06 651.36,44.28 651.36,45.48 C651.28,46.28 651.28,46.76 651.36,46.92 C651.44,47.24 651.96,47.48 652.92,47.64 C653.88,47.8 654.66,47.74 655.26,47.46 C655.86,47.18 656.52,46.72 657.24,46.08 C658.44,45.36 659.52,45 660.48,45 L669,45 C670.44,45 670.76,45.8 669.96,47.4 L659.64,69.72 C657.72,73.88 656.76,77.04 656.76,79.2 C656.76,81.44 657.88,82.56 660.12,82.56 C663.24,82.56 666.48,80.16 669.84,75.36 C671.68,72.16 673.52,68.96 675.36,65.76 C676,64.72 677.08,65.08 678.6,66.84 C680.12,68.6 680.52,70.32 679.8,72 C677.72,76.96 674.68,81.44 670.68,85.44 C665.8,90.32 660.84,92.72 655.8,92.64 C647.8,92.56 643.8,89.04 643.8,82.08 C643.8,79.68 644.36,77.28 645.48,74.88 L653.04,58.44 C654,56.28 654.08,54.84 653.28,54.12 C652.08,53 650.36,52.8 648.12,53.52 C645.72,54.24 644.08,55.6 643.2,57.6 C642.48,59.12 641.2,61.88 639.36,65.88 C635.68,73.64 632.92,78.56 631.08,80.64 C630.92,80.88 630.68,81 630.36,81 C629.48,80.84 628.7,80 628.02,78.48 C627.34,76.96 627.12,75.44 627.36,73.92 C627.44,73.52 627.56,73.16 627.72,72.84 C628.6,71.16 630.68,67.08 633.96,60.6 C635.32,57.96 636.6,55.04 637.8,51.84 C637.32,51.12 637.04,50.24 636.96,49.2 C636.88,46.72 637.66,44.56 639.3,42.72 C640.94,40.88 643,39.96 645.48,39.96 Z" id="Path"></path>
        </g>
    </g>
</svg>